<svg xmlns="http://www.w3.org/2000/svg" width="1023.647" height="950.113" viewBox="0 0 1023.647 950.113">
  <g id="logo" transform="translate(22 453.328)" opacity="0.44">
    <circle id="Ellipse_6" data-name="Ellipse 6" cx="385.5" cy="385.5" r="385.5" transform="translate(87 -413)" fill="#e23b3b"/>
    <g id="Group_1470" data-name="Group 1470" transform="translate(-142.446 -587)">
      <path id="Path_1909" data-name="Path 1909" d="M1125.6,151.887a45.071,45.071,0,0,0-13.122-5.751,48.151,48.151,0,0,0-30.048,1.364c-9.964,3.92-17.1,11.3-19.573,20.246-1.733,6.27-.126,12.616,4.527,17.869,1.063,1.2,2.248,2.362,3.5,3.593,3.131,3.073,6.371,6.251,8.287,10.56,2.7,6.072,1.434,13.919-3.387,20.991a3.3,3.3,0,0,1-.452.528c.019.025.041.046.06.072a20.373,20.373,0,0,1,3.855,15.52c-1.18,7.223-6.108,12.669-14.648,16.188a3.27,3.27,0,0,1-4.374-2.06,3.376,3.376,0,0,1,2-4.044c7.167-2.985,10.649-7.282,10.734-13.19a13.445,13.445,0,0,0-.969-5.241,12.216,12.216,0,0,0-9.877-7.9c-7.024-.785-12.486,4.495-18.266,10.086a71.147,71.147,0,0,1-7.835,6.877c-7.455,5.3-16.118,7.213-23.164,5.113-8.209-2.449-12.749-8.428-12.451-16.4.408-10.909,9.774-22.45,20.047-24.7,4.083-.892,6.666-2.2,7.272-3.676,1.008-2.46-2.332-7.571-5.277-12.08-3.232-4.946-6.571-10.06-7.291-15.272a109.473,109.473,0,0,1-.757-11.882c-.415-15.2-1.311-23.853-14.87-24.964-7-.581-13.68,3.531-20.159,7.5a85.319,85.319,0,0,1-9.618,5.343c-4.97,2.2-9.233,1.512-13.363.841-1.4-.228-2.845-.462-4.315-.579-4.378-.342-10.744-.49-15.518,2.216a15.807,15.807,0,0,0-8,10.333c-2.319,9.307,2.214,21.054,7.227,28.942,8.813,13.871,22.912,18.726,36.354,13.086a14.416,14.416,0,0,0,8.046-8.388,20.033,20.033,0,0,0,1.172-5.486c.251-3.894-2.2-11.058-6.586-15.844-1.622-1.771-4.151-3.9-6.977-3.957-3.184-.081-5.6.7-6.626,2.125-1.424,1.956-.667,5.436.236,8.043a3.326,3.326,0,0,1-1.331,3.944,3.279,3.279,0,0,1-4.822-1.7c-2.08-5.951-1.871-10.705.619-14.134,2.348-3.229,6.625-4.964,12.068-4.82,4.065.089,8.1,2.192,11.661,6.077,5.21,5.683,8.7,14.384,8.292,20.688-.88,13.728-13.595,27.053-27.211,28.516-14.186,1.537-28.047-6.422-37.235-12.532q-1.684-1.122-3.4-2.286c-12.233-8.27-24.88-16.819-38.952-11.471l-.572.219c-3.207,1.237-8.053,3.1-12.38-.582-2.082-1.772-4.13-3.681-6.112-5.528-5.543-5.167-11.274-10.51-18.1-13.112-25.13-9.58-50.734-6.795-70.25,7.652-5.682,4.207-10.253,9.629-15.093,15.369-7.125,8.45-14.49,17.188-25.677,21.706-5.714,2.307-11.509,2.823-17.112,3.323-5.029.449-9.78.872-14.326,2.521-11.421,4.143-19.115,13.78-21.661,27.135-2.462,12.906.212,24.715,8.416,37.161,3.94,5.975,8.6,12.834,14.083,18.633l1.114,1.177c8.768,9.261,17.836,18.839,21.967,31.432.479,1.456.944,2.953,1.417,4.47,3.6,11.569,7.325,23.532,19.109,26.455,5.513,1.371,11.461.851,16.549.162,3-.406,6.255-1.048,9.705-1.729,9.152-1.805,19.522-3.855,28.269-1.855a49.556,49.556,0,0,1,13.367,4.777c21.28,12.051,54.9,6.053,70.524-12.58a55.46,55.46,0,0,0,5.311-8.121,59.354,59.354,0,0,1,6.266-9.42c4.083-4.752,8.542-5.746,12.851-6.708,1.46-.325,2.967-.662,4.548-1.149a44.223,44.223,0,0,0,16.528-9.345c4.838-4.551,6.46-11.107,4.821-19.486a65.206,65.206,0,0,0-4.3-12.616c-2.747-6.569-5.586-13.36-5.156-21.608.081-1.53.181-3.039.279-4.528.732-11.016,1.307-19.717-6.246-27.934-6.33-6.882-16.466-9.7-27.113-7.544a53.19,53.19,0,0,0-7.108,2.123c-6.684,2.345-13.593,4.77-22.1-2.121-9.808-7.945-21.909-16.068-37.3-16.067-10.52,0-18.889,1.548-25.584,4.734-7.713,3.667-12.15,9.612-17.288,16.495-1.014,1.357-2.044,2.735-3.116,4.119-5.812,7.506-14.354,8.776-21.89,9.894-7.067,1.051-13.17,1.958-17.222,7.1a13.649,13.649,0,0,0-2.142,4.6c-3.487,11.541-.982,22.451,8.126,35.375,4.525,6.425,5.463,13.656,6.371,20.649,1.17,9,2.178,16.773,10.588,21.718,9.266,5.448,20.536,2.065,31.433-1.207,2.295-.688,4.546-1.363,6.726-1.941,7.095-1.878,15.477-3.192,23.9,1.295l2.3,1.237c5.217,2.825,10.613,5.747,16.214,6.725,8.122,1.418,15.9-1.791,21.862-9.05a63.839,63.839,0,0,0,5.9-9.085c4.712-8.251,9.577-16.786,23.933-15.961a11.2,11.2,0,0,0,8.751-3.236,12.72,12.72,0,0,0,3.489-9.816,28.288,28.288,0,0,0-9.267-18.713c-3.38-3.044-8.509-4.024-13.942-5.063-6.737-1.287-13.7-2.619-17.887-8.269a43.768,43.768,0,0,1-2.786-4.4c-1.456-2.528-2.6-4.526-5.042-6.091a23.967,23.967,0,0,0-17.826-3.189c-4.19.9-7.022,3.218-10.3,5.907a44.029,44.029,0,0,1-7.892,5.52c-4.58,2.356-8.794,2.8-12.869,3.221-1.975.206-4.019.418-6.159.851-6.432,1.3-12.378,6.136-11.3,12.863,1.553,9.684,19.854,17.163,31.889,15.457,8.648-1.223,8.065-6,7.871-7.576a3.321,3.321,0,0,0-1.524-2.228,2.457,2.457,0,0,0-1.937-.394,3.082,3.082,0,0,1-3.077-.542,3.319,3.319,0,0,1,1.1-5.7,8.854,8.854,0,0,1,7.449,1.129,9.841,9.841,0,0,1,4.484,6.941c.974,7.972-4.056,13.524-13.455,14.853-13.81,1.957-36.9-6.142-39.272-20.9-1.73-10.8,6.976-18.4,16.47-20.317,2.445-.494,4.647-.724,6.778-.946,3.791-.4,7.065-.737,10.549-2.53a38.441,38.441,0,0,0,6.739-4.762c3.609-2.959,7.34-6.018,13.084-7.247a30.551,30.551,0,0,1,22.729,4.082c3.783,2.427,5.512,5.432,7.182,8.337a37.672,37.672,0,0,0,2.375,3.775c2.66,3.594,8.1,4.633,13.853,5.733,6.074,1.161,12.357,2.361,17.094,6.629a34.5,34.5,0,0,1,11.419,23.163,19.269,19.269,0,0,1-5.381,14.846,17.719,17.719,0,0,1-13.768,5.157c-10.332-.592-13.311,4.686-17.872,12.671a69.018,69.018,0,0,1-6.53,9.994c-7.525,9.159-17.491,13.192-28.047,11.344-6.654-1.162-12.528-4.342-18.207-7.416l-2.261-1.218c-6.4-3.411-12.979-2.374-19.139-.743-2.114.56-4.294,1.214-6.517,1.882-11.675,3.5-24.9,7.479-36.636.58-11.171-6.569-12.546-17.168-13.761-26.519-.842-6.49-1.639-12.619-5.232-17.721-10.377-14.728-13.167-27.385-9.039-41.04a20.15,20.15,0,0,1,3.265-6.755c5.663-7.181,14.024-8.424,21.4-9.52,6.931-1.03,13.476-2,17.679-7.428,1.046-1.353,2.052-2.7,3.043-4.027,5.424-7.265,10.547-14.127,19.722-18.49,7.594-3.613,16.882-5.37,28.4-5.37,17.429,0,30.717,8.86,41.418,17.528,5.667,4.589,9.486,3.25,15.811,1.029a59.511,59.511,0,0,1,7.975-2.361c12.926-2.611,25.343.945,33.235,9.53,9.452,10.282,8.725,21.219,7.958,32.8-.1,1.459-.194,2.938-.273,4.437-.354,6.757,2.08,12.578,4.657,18.739A70.989,70.989,0,0,1,941.09,301.5c2.072,10.583-.264,19.4-6.758,25.511a51.055,51.055,0,0,1-19.083,10.833c-1.831.564-3.542.947-5.053,1.284-4,.893-6.645,1.482-9.314,4.586-.211.246-.4.511-.6.764,10.672-2.659,18.824,3.29,26.143,8.679,5.995,4.413,11.66,8.582,18.557,8.635,6.777.1,12.717-2.949,17.043-8.678a21.637,21.637,0,0,0,3.093-5.064l.432-1.043a12.176,12.176,0,0,0,1.172-3.828c.03-.649,0-1.317-.027-1.99a17.573,17.573,0,0,1,.332-5.162c1.707-6.65,9.041-8.25,14.394-9.419a38.142,38.142,0,0,0,3.971-1c4.925-1.712,10.809-6.294,12.523-11.738a8.879,8.879,0,0,0-1.428-8.34c-2.331-3.22-5.648-4.108-9.846-5.23-1.673-.448-3.4-.911-5.156-1.56a31.481,31.481,0,0,1-17.578-15.849c-4.277-9.38-1.694-18.553,6.583-23.368a21.916,21.916,0,0,1,28.488,6.13,15.186,15.186,0,0,1,3.229,9.945c-.236,3.161-1.982,8.678-11.016,10.105a3.273,3.273,0,0,1-1.023-6.466c5.264-.831,5.443-3.227,5.509-4.128a9.061,9.061,0,0,0-2.005-5.622,15.3,15.3,0,0,0-19.889-4.3c-5.324,3.1-6.788,8.7-3.917,14.992A25.145,25.145,0,0,0,983.759,292.6c1.467.543,2.976.947,4.574,1.374,3.8,1.017,8.009,2.179,11.447,5.456a3.265,3.265,0,0,1,.795.481c6.894,5.834,20.6,14.839,34.884,9.611,8.84-3.233,12.18-10.991,16.046-19.974,3.367-7.82,6.847-15.9,14.449-21.337,4.442-3.174,9.343-4.141,14.085-5.076a55.284,55.284,0,0,0,6.9-1.664c14.319-4.811,24.08-18.163,25.474-34.845a50.788,50.788,0,0,0-3.644-23.393c-1.575-3.837-4.045-7.158-6.663-10.675-3.8-5.1-7.717-10.368-9.079-17.564-1.837-9.695,3.749-18.246,13.585-20.795,8.032-2.084,15.449.645,22.612,3.286,4.341,1.6,8.442,3.112,12.506,3.511.8.078,1.584.122,2.359.136-6.615-1.368-12.152-5.041-17.544-8.62Z" fill="#513333"/>
    </g>
    <g id="Group_1471" data-name="Group 1471" transform="translate(-142.446 -587)">
      <path id="Path_1910" data-name="Path 1910" d="M181.365,762.749a63.119,63.119,0,0,0,1.732,11.568,57.392,57.392,0,0,1,2.092,13.565c0,4.409,1.026,9.252-.65,13.966l-.392,1.144c-.319.945-.672,1.945-1.091,2.942a95.77,95.77,0,0,1,34.269-3.378,72.273,72.273,0,0,1,11.223,2.164c4.219,1.049,8.237,2.09,11.91,2.016,4.2-.025,8.448-1.488,12.951-3.036a72.406,72.406,0,0,1,9.7-2.834c29.072-5.627,62.082,2.725,86.146,21.8a81.823,81.823,0,0,1,12.727,12.741,56.673,56.673,0,0,1-3.41-10.168,37.854,37.854,0,0,1,9.776-34.578c8.883-9.106,21.6-12.768,34.931-10.053,5.022,1.02,8.943-2.1,14.906-7.283,4.348-3.78,9.273-8.064,15.5-9.782,17.107-4.714,35.874-1.063,47.8,9.3,5.647,4.908,12.683,12.927,14.116,23.252,1.349,9.7-3.363,19.061-12.6,25.053-11.231,7.285-25.929,7.708-36.569,1.062-4.446-2.777-8.981-8.206-9.083-14.074a10.881,10.881,0,0,1,5.114-9.387,4.046,4.046,0,1,1,4.522,6.711A2.785,2.785,0,0,0,445.449,808c.039,2.3,2.358,5.526,5.275,7.348,9.275,5.793,20.683,3.68,27.879-.987,6.627-4.3,9.9-10.549,8.988-17.146-1.091-7.842-6.806-14.256-11.41-18.256-9.939-8.636-25.771-11.626-40.343-7.609-4.458,1.228-8.287,4.559-12.342,8.085-5.921,5.149-12.636,10.984-21.837,9.107-10.725-2.19-20.5.574-27.518,7.773a29.686,29.686,0,0,0-7.682,27.111c3.479,15.1,14.409,28.474,29.244,35.768a64.1,64.1,0,0,0,25.645,6.36c3.586.136,7.012-.046,10.314-.224,5.391-.294,10.972-.6,17.183.535l.609.111c11.855,2.155,22.1,4.014,33.882,1.56A69.235,69.235,0,0,0,529.9,831.685c7.362-14.586,8.081-29.9,2.026-43.106-2.235-4.871-6.909-9.476-11.431-13.93-7.136-7.031-14.517-14.3-14.522-24.164-.01-22.361-16.477-44.252-42.97-57.131-17.031-8.281-39.813-9.981-59.447-4.441-12,3.383-21.972,10.039-31.373,20.947-2.2,2.555-4.274,5.513-6.467,8.645-5.8,8.272-12.366,17.648-23.325,21.519-8.968,3.167-17.711,2.175-26.164,1.216A93.7,93.7,0,0,0,303,740.359c-13.32.382-28.427,8.981-35.138,20-2.759,4.529-5.27,11.544-1.571,19.242a4.047,4.047,0,1,1-7.294,3.508c-4.116-8.562-3.423-18.136,1.95-26.961,8.148-13.379,25.734-23.423,41.822-23.886a100.987,100.987,0,0,1,14.369.93c7.892.9,15.346,1.742,22.556-.8,8.514-3.008,14.045-10.9,19.392-18.532.772-1.1,1.594-2.241,2.422-3.238a.729.729,0,0,0-.676-.339c-3.693-.059-7.419.352-11.065-.242-5.588-.912-11.441-3.243-16.764-5.156-11.351-4.088-21.792-5.166-33.686-2.746a73.156,73.156,0,0,0-16.986,5.7,71.322,71.322,0,0,0-8.231,4.63,20.386,20.386,0,0,0-5.922,5.741c-3.428,4.652-9.289,4.554-13.555,4.471-.7-.012-1.4-.028-2.059-.016-2.344.028-4.26-.99-6.529-1.546a47.156,47.156,0,0,0-7.683-1.122,84.34,84.34,0,0,0-13.645.063,62.059,62.059,0,0,0-21.36,5.5c-6.861,3.272-13.663,8.378-17.452,15.1a35.835,35.835,0,0,0-4.335,14.114A53.482,53.482,0,0,0,181.365,762.749Z" fill="#513333"/>
      <path id="Path_1911" data-name="Path 1911" d="M675.9,1062.472c3.093-1.81,6.147-3.6,9.162-5.3,10.725-6.047,22.248-12.311,34.8-16.591,6.859-2.339,17.289-5.339,26.98-5.9-10.851-1.776-23.507-.042-30.579,1.269-6.34,1.178-12.644,2.846-19.318,4.613-13.249,3.508-26.928,7.136-40.939,6.615-22.791-.844-38.672-12.821-41.444-31.258a3.993,3.993,0,0,1,.01-1.146,57.489,57.489,0,0,1-8.513.627,68.18,68.18,0,0,1-20.156-2.982c-4.841-1.59-14.23-6.4-15.125-13.208-.269-2.037.039-5.95,5.114-9.271,4.957-3.241,11.729-1.583,15.323-.306a4.047,4.047,0,0,1-2.709,7.628c-3.549-1.262-6.761-1.478-8.182-.547-1.146.75-1.494,1.3-1.525,1.439.015,1.282,4.521,4.9,9.628,6.573,9.987,3.281,28.209,4.174,35.215-1.81,2.462-2.1,3.318-4.877,2.7-8.731a10.567,10.567,0,0,0-4.169-6.58c-.25-.161-1.233-.584-1.886-.863-3.3-1.415-7.816-3.355-7.526-7.759a31.065,31.065,0,0,1,.759-4.523c.8-3.649.975-5.173-.438-6.718-3.752-4.112-7.641-3.991-11.768-3.878l-.838.024a35.027,35.027,0,0,0-9.523,2.1,49.582,49.582,0,0,1-9.644,2.341c-6.514.719-12.175-.217-16.872-2.747-3.654,11.905-15.867,20.313-30.712,20.313a4.047,4.047,0,1,1,0-8.094c12.838,0,23.033-7.974,23.713-18.547.655-10.174-8.894-20.263-20.433-21.589-9.75-1.124-20.024,3.6-29.958,8.168-4.3,1.977-8.358,3.842-12.411,5.274-12.272,4.342-32.912,3.99-46.211-4.106-6.812-4.147-10.915-9.973-11.866-16.849a21.249,21.249,0,0,1,2.278-13.621c-13.909,5.46-24.907,12.877-27.172,23.948-2.988,14.584,3.439,24.149,20.833,31.018a39.41,39.41,0,0,0,19.249,2.814,4.048,4.048,0,1,1,1.017,8.031,40.377,40.377,0,0,1-5.072.314,49.756,49.756,0,0,1-18.166-3.63c-21.178-8.362-29.616-21.5-25.792-40.171,4.353-21.281,29.726-30.678,56.957-37.48,11.379-3.959,25.283-6.3,38.451-8.519,16.227-2.727,31.555-5.3,38.282-10.183,9.012-6.532,10.775-15.205,4.836-23.8a4.049,4.049,0,0,1,.972-5.592,34.6,34.6,0,0,0,14.782-30.029,38.576,38.576,0,0,0-15.546-29.058c3.357,13.182,1.553,27.474-5.339,41.128-10.177,20.159-30.15,35.534-52.13,40.125a63.945,63.945,0,0,1-13.164,1.335c-8.124,0-15.827-1.4-23.822-2.855l-.608-.112c-5.273-.957-10.14-.7-15.294-.415-3.489.189-7.094.382-11.068.231a72.307,72.307,0,0,1-28.9-7.185,64.881,64.881,0,0,1-21.1-16.557,43.707,43.707,0,0,1,4.075,15.969,30.281,30.281,0,0,1-9.77,23.886c-.132.128-11.429,10.088-20.08,13.505,7.958,16.817,6.641,31.724-3.965,45.417-19.208,24.8-57.882,25.738-82.694,12.376-5.257-2.832-14.738-9.03-19.178-18.728a30.915,30.915,0,0,1-2.451-8.15,10.657,10.657,0,0,0-.414-1.824c-.087-.071-.924-.7-5.41-1.542-3-.563-5.889-.987-8.677-1.4-11.707-1.723-22.767-3.351-32.709-13.963-14.917-15.924-17.078-38.131-5.373-55.256,12.957-18.957,35.929-27.167,59.9-21.45,1.763.42,3.326.86,4.793,1.273,4.372,1.232,7.255,2.044,12.188,1.438a35.367,35.367,0,0,0,5.575-1.322c3.85-1.131,8.206-2.412,13.371-1.232,9.162,2.1,18.063,7.792,26.453,16.925,3.445,3.747,7.682,8.854,9.89,15.123a23.269,23.269,0,0,1-2.4,20.37c-4.97,7.986-14.408,13.7-24.632,14.916A27.07,27.07,0,0,1,264.88,895.4c-3.049-4.435-3.66-9.141-1.678-12.912,1.633-3.106,5.691-6.809,15.741-6.809a4.047,4.047,0,1,1,0,8.095c-5.362,0-7.944,1.282-8.577,2.483-.521.99-.068,2.736,1.183,4.556a18.882,18.882,0,0,0,17.026,7.379c7.839-.931,15.012-5.2,18.717-11.154a15.2,15.2,0,0,0,1.633-13.4c-1.341-3.809-3.873-7.613-8.213-12.335-7.262-7.9-14.765-12.787-22.3-14.51-3.1-.71-5.966.133-9.283,1.107a42.063,42.063,0,0,1-6.87,1.59c-6.532.8-10.632-.349-15.368-1.681-1.37-.387-2.83-.8-4.477-1.191-20.645-4.935-40.329,2.025-51.341,18.142-9.513,13.92-7.666,32.066,4.6,45.156,8.008,8.55,16.822,9.846,27.979,11.487,2.888.426,5.879.866,8.991,1.449,9.252,1.732,11.265,4.1,12.3,9.9a23.171,23.171,0,0,0,1.841,6.2c2.525,5.514,8.23,10.97,15.655,14.969,22,11.848,56.367,10.569,72.46-10.205,9.683-12.5,9.786-25.9.321-42.153l0-.011h0a4.047,4.047,0,0,1,5.857-5.325c3.958-.909,15.35-9.163,18.694-12.34a22.124,22.124,0,0,0,7.259-17.658c-.614-13.713-11.894-28.576-22.8-37.223-22.267-17.648-52.765-25.39-79.579-20.195a65.439,65.439,0,0,0-8.6,2.541c-4.922,1.694-10.013,3.443-15.536,3.476a60.458,60.458,0,0,1-13.908-2.254,65.208,65.208,0,0,0-9.961-1.955,88.078,88.078,0,0,0-37.812,5.171,3.851,3.851,0,0,1-2.607,1.071c-.056,0-.114-.022-.17-.025a91.882,91.882,0,0,0-40.271,31.706c-16.079,22.478-19.763,49.365-9.852,71.92,8.7,19.786,27.173,26.976,52.243,31.684,11.278,2.121,11.346,11.271,11.391,17.326a38.251,38.251,0,0,0,.256,5.086c1.536,10.311,4.722,17.767,10.029,23.463,19.484,20.921,64.844,20.165,90.825,12.948,2.472-.686,4.955-1.417,7.442-2.148,19.779-5.821,42.2-12.425,61.418,4.406a4.047,4.047,0,0,1-5.333,6.089c-13.049-11.43-27.833-9.783-43.529-5.645,10.2,4.152,18.508,12.988,23.12,23.126,10.424,22.913,24.093,30.628,44.346,25.027,14.495-4.012,27-13.452,39.088-22.581,18.467-13.945,37.571-28.374,64.726-25.25,15.236,1.747,27.763,10.586,31.918,22.518,3.555,10.209,7.727,16.263,18.515,17,9.372.649,19.288-2.879,29.794-6.606,17.413-6.179,37.139-13.182,54.251,2.385a4.047,4.047,0,0,1-5.449,5.986c-13.521-12.3-28.617-6.944-46.1-.742q-1.926.683-3.869,1.363c7.264,2.728,13.018,7.1,18.966,11.638a112.394,112.394,0,0,0,14.174,9.673,51.755,51.755,0,0,0,26.941,6.534C640.839,1082.981,658.663,1072.556,675.9,1062.472Z" fill="#513333"/>
    </g>
  </g>
</svg>
